<?xml version="1.0" encoding="utf-8"?>
<!-- Generator: Adobe Illustrator 24.0.1, SVG Export Plug-In . SVG Version: 6.00 Build 0)  -->
<svg version="1.1" id="Layer_1" xmlns="http://www.w3.org/2000/svg" xmlns:xlink="http://www.w3.org/1999/xlink" x="0px" y="0px"
	 viewBox="0 0 456.4 56.1" style="enable-background:new 0 0 456.4 56.1;" xml:space="preserve">
<style type="text/css">
	.st0{fill:#FFFFFF;}
	.st1{fill:#DE4A24;}
	.st2{fill:#244BDD;}
</style>
<rect x="0.3" class="st0" width="456.1" height="56"/>
<g>
	<path class="st1" d="M46.3,2.6V53H34.6V32.4H11.7V53H0V2.6h11.7v19.9h22.9V2.6H46.3z"/>
	<path class="st1" d="M68.7,12.1H52.5V2.6h43.9v9.5H80.3V53H68.7V12.1z"/>
	<path class="st1" d="M148.6,53l-0.1-30.2l-14.8,24.9h-5.3l-14.8-24.3V53h-10.9V2.6h9.6l18.9,31.3l18.6-31.3h9.6l0.1,50.4H148.6z"/>
	<path class="st1" d="M171.5,2.6h11.7v40.9h25.2V53h-36.9V2.6z"/>
	<path class="st1" d="M244.8,25.8c3.4,2.8,5.1,6.6,5.1,11.4c0,3.1-0.8,5.9-2.3,8.4s-3.9,4.5-7,6s-7,2.3-11.6,2.3
		c-3.6,0-7-0.5-10.5-1.4c-3.4-0.9-6.3-2.3-8.7-4l4.6-8.9c1.9,1.4,4.1,2.6,6.6,3.3c2.5,0.8,5.1,1.2,7.7,1.2c2.9,0,5.2-0.6,6.9-1.7
		c1.7-1.2,2.5-2.8,2.5-4.8c0-2.2-0.9-3.8-2.6-4.9c-1.8-1.1-4.8-1.7-9.1-1.7h-13L216,2.6h30.7V12h-21l-0.8,9.6h4.1
		C236.2,21.6,241.4,23,244.8,25.8z"/>
	<path class="st2" d="M288.4,50.5c-4.2-2.2-7.4-5.3-9.8-9.3s-3.6-8.4-3.6-13.4s1.2-9.5,3.6-13.4s5.6-7.1,9.8-9.3
		c4.2-2.2,8.8-3.3,14-3.3c4.4,0,8.3,0.8,11.8,2.3s6.5,3.7,8.9,6.6l-7.5,6.9c-3.4-3.9-7.6-5.9-12.7-5.9c-3.1,0-5.9,0.7-8.4,2.1
		c-2.4,1.4-4.4,3.3-5.7,5.7s-2.1,5.2-2.1,8.4c0,3.1,0.7,5.9,2.1,8.4c1.4,2.4,3.3,4.4,5.7,5.7c2.4,1.4,5.2,2.1,8.4,2.1
		c5,0,9.3-2,12.7-6l7.5,6.9c-2.4,2.9-5.4,5.2-8.9,6.7c-3.6,1.5-7.5,2.3-11.9,2.3C297.2,53.9,292.5,52.8,288.4,50.5z"/>
	<path class="st2" d="M335.5,52.3c-3.7-1.1-6.7-2.5-9-4.2l4-8.8c2.2,1.6,4.7,2.9,7.7,3.8c3,1,6,1.4,8.9,1.4c3.3,0,5.8-0.5,7.3-1.5
		c1.6-1,2.4-2.3,2.4-3.9c0-1.2-0.5-2.2-1.4-3s-2.1-1.4-3.6-1.9s-3.4-1-5.9-1.6c-3.8-0.9-7-1.8-9.4-2.7c-2.4-0.9-4.5-2.4-6.3-4.4
		s-2.6-4.7-2.6-8.1c0-2.9,0.8-5.6,2.4-8s4-4.3,7.2-5.7s7.1-2.1,11.7-2.1c3.2,0,6.4,0.4,9.4,1.2c3.1,0.8,5.8,1.9,8.1,3.3l-3.6,8.9
		c-4.7-2.6-9.3-4-14-4c-3.3,0-5.7,0.5-7.2,1.6c-1.6,1.1-2.3,2.4-2.3,4.2c0,1.7,0.9,3,2.7,3.9c1.8,0.8,4.5,1.7,8.2,2.5
		c3.8,0.9,7,1.8,9.4,2.7c2.4,0.9,4.5,2.4,6.3,4.3c1.8,2,2.6,4.6,2.6,8c0,2.9-0.8,5.5-2.4,7.9s-4,4.3-7.2,5.7s-7.1,2.1-11.7,2.1
		C343.1,53.9,339.2,53.3,335.5,52.3z"/>
	<path class="st2" d="M381.5,52.3c-3.7-1.1-6.7-2.5-9-4.2l4-8.8c2.2,1.6,4.7,2.9,7.7,3.8c3,1,6,1.4,8.9,1.4c3.3,0,5.8-0.5,7.3-1.5
		c1.6-1,2.4-2.3,2.4-3.9c0-1.2-0.5-2.2-1.4-3s-2.1-1.4-3.6-1.9s-3.4-1-5.9-1.6c-3.8-0.9-7-1.8-9.4-2.7c-2.4-0.9-4.5-2.4-6.3-4.4
		s-2.6-4.7-2.6-8.1c0-2.9,0.8-5.6,2.4-8s4-4.3,7.2-5.7s7.1-2.1,11.7-2.1c3.2,0,6.4,0.4,9.4,1.2c3.1,0.8,5.8,1.9,8.1,3.3l-3.6,8.9
		c-4.7-2.6-9.3-4-14-4c-3.3,0-5.7,0.5-7.2,1.6c-1.6,1.1-2.3,2.4-2.3,4.2c0,1.7,0.9,3,2.7,3.9c1.8,0.8,4.5,1.7,8.2,2.5
		c3.8,0.9,7,1.8,9.4,2.7c2.4,0.9,4.5,2.4,6.3,4.3c1.8,2,2.6,4.6,2.6,8c0,2.9-0.8,5.5-2.4,7.9s-4,4.3-7.2,5.7s-7.1,2.1-11.7,2.1
		C389,53.9,385.2,53.3,381.5,52.3z"/>
	<path class="st2" d="M452.6,28.1c2.4,2.6,3.5,5.7,3.5,9.5c0,2.9-0.8,5.6-2.3,8.1s-3.9,4.5-7,5.9c-3.1,1.5-7,2.2-11.6,2.2
		c-3.6,0-7-0.5-10.5-1.4c-3.4-0.9-6.3-2.3-8.7-4l4.5-8.9c1.9,1.4,4.1,2.6,6.7,3.3c2.5,0.8,5.1,1.2,7.7,1.2c2.9,0,5.2-0.6,6.9-1.7
		c1.7-1.1,2.5-2.7,2.5-4.8c0-4.1-3.1-6.2-9.4-6.2h-5.3v-7.7L440,12h-21.5V2.6h35.3v7.6l-11.4,13C446.9,23.9,450.3,25.5,452.6,28.1z"
		/>
</g>
</svg>
