<?xml version="1.0" encoding="utf-8"?>
<!-- Generator: Adobe Illustrator 24.0.1, SVG Export Plug-In . SVG Version: 6.00 Build 0)  -->
<svg version="1.1" id="Layer_1" xmlns="http://www.w3.org/2000/svg" xmlns:xlink="http://www.w3.org/1999/xlink" x="0px" y="0px"
	 viewBox="0 0 467.6 56" style="enable-background:new 0 0 467.6 56;" xml:space="preserve">
<style type="text/css">
	.st0{fill:#F7E018;}
</style>
<rect class="st0" width="467.6" height="56"/>
<g>
	<path d="M7,52.2c-2.9-1.3-5.2-3.1-7-5.4l6.5-7.8c2.7,3.7,5.9,5.5,9.4,5.5c4.8,0,7.1-2.8,7.1-8.4v-24H5.3V2.8h29.3v32.7
		c0,6.2-1.5,10.8-4.6,13.9c-3.1,3.1-7.6,4.6-13.5,4.6C13,54.1,9.9,53.4,7,52.2z"/>
	<path d="M78.2,42.4H54.8l-4.5,10.8h-12L60.8,2.8h11.5l22.5,50.4H82.7L78.2,42.4z M74.5,33.5l-8-19.3l-8,19.3H74.5z"/>
	<path d="M145.9,2.8l-21.8,50.4h-11.5L90.8,2.8h12.6l15.3,36l15.6-36H145.9z"/>
	<path d="M181.6,42.4h-23.4l-4.5,10.8h-12l22.5-50.4h11.5l22.5,50.4H186L181.6,42.4z M177.9,33.5l-8-19.3l-8,19.3H177.9z"/>
	<path d="M208.5,52.4c-3.7-1.1-6.7-2.5-9-4.2l4-8.8c2.2,1.6,4.7,2.9,7.7,3.8c3,1,6,1.4,8.9,1.4c3.3,0,5.8-0.5,7.3-1.5
		c1.6-1,2.4-2.3,2.4-3.9c0-1.2-0.5-2.2-1.4-3c-0.9-0.8-2.1-1.4-3.6-1.9c-1.5-0.5-3.4-1-5.9-1.6c-3.8-0.9-7-1.8-9.4-2.7
		c-2.4-0.9-4.5-2.4-6.3-4.4c-1.8-2-2.6-4.7-2.6-8.1c0-2.9,0.8-5.6,2.4-8s4-4.3,7.2-5.7c3.2-1.4,7.1-2.1,11.7-2.1
		c3.2,0,6.4,0.4,9.4,1.2c3.1,0.8,5.8,1.9,8.1,3.3l-3.6,8.9c-4.7-2.6-9.3-4-14-4c-3.3,0-5.7,0.5-7.2,1.6c-1.6,1.1-2.3,2.4-2.3,4.2
		s0.9,3,2.7,3.9c1.8,0.8,4.5,1.7,8.2,2.5c3.8,0.9,7,1.8,9.4,2.7c2.4,0.9,4.5,2.4,6.3,4.3c1.8,2,2.6,4.6,2.6,8c0,2.9-0.8,5.5-2.4,7.9
		c-1.6,2.4-4,4.3-7.2,5.7c-3.2,1.4-7.1,2.1-11.7,2.1C216.1,54.1,212.3,53.5,208.5,52.4z"/>
	<path d="M259.7,50.7c-4.2-2.2-7.4-5.3-9.8-9.3c-2.4-4-3.6-8.4-3.6-13.4c0-5,1.2-9.5,3.6-13.4s5.6-7.1,9.8-9.3
		c4.2-2.2,8.8-3.3,14-3.3c4.4,0,8.3,0.8,11.8,2.3c3.5,1.5,6.5,3.7,8.9,6.6l-7.5,6.9c-3.4-3.9-7.6-5.9-12.7-5.9
		c-3.1,0-5.9,0.7-8.4,2.1c-2.4,1.4-4.4,3.3-5.7,5.7c-1.4,2.4-2.1,5.2-2.1,8.4c0,3.1,0.7,5.9,2.1,8.4c1.4,2.4,3.3,4.4,5.7,5.7
		c2.4,1.4,5.2,2.1,8.4,2.1c5,0,9.3-2,12.7-6l7.5,6.9c-2.4,2.9-5.4,5.2-8.9,6.7c-3.6,1.5-7.5,2.3-11.9,2.3
		C268.5,54.1,263.8,52.9,259.7,50.7z"/>
	<path d="M334.4,53.2l-9.7-14h-0.6h-10.2v14h-11.7V2.8h21.8c4.5,0,8.3,0.7,11.6,2.2c3.3,1.5,5.8,3.6,7.6,6.3c1.8,2.7,2.7,6,2.7,9.7
		c0,3.7-0.9,7-2.7,9.7c-1.8,2.7-4.4,4.8-7.7,6.2l11.3,16.2H334.4z M331.4,14.6c-1.8-1.5-4.5-2.3-8-2.3h-9.5v17.6h9.5
		c3.5,0,6.2-0.8,8-2.3c1.8-1.5,2.7-3.7,2.7-6.5C334.1,18.3,333.2,16.1,331.4,14.6z"/>
	<path d="M355.2,2.8h11.7v50.4h-11.7V2.8z"/>
	<path d="M412.2,5c3.3,1.5,5.8,3.6,7.6,6.3c1.8,2.7,2.7,6,2.7,9.7c0,3.7-0.9,6.9-2.7,9.7c-1.8,2.8-4.3,4.9-7.6,6.3
		c-3.3,1.5-7.2,2.2-11.6,2.2h-10.2v13.9h-11.7V2.8h21.8C405.1,2.8,408.9,3.5,412.2,5z M407.9,27.5c1.8-1.5,2.7-3.7,2.7-6.4
		c0-2.8-0.9-5-2.7-6.5c-1.8-1.5-4.5-2.3-8-2.3h-9.5v17.5h9.5C403.5,29.8,406.1,29,407.9,27.5z"/>
	<path d="M439.8,12.3h-16.1V2.8h43.9v9.5h-16.1v40.9h-11.7V12.3z"/>
</g>
</svg>
