<?xml version="1.0" encoding="utf-8"?>
<!-- Generator: Adobe Illustrator 24.0.1, SVG Export Plug-In . SVG Version: 6.00 Build 0)  -->
<svg version="1.1" id="Layer_1" xmlns="http://www.w3.org/2000/svg" xmlns:xlink="http://www.w3.org/1999/xlink" x="0px" y="0px"
	 viewBox="0 0 324 56" style="enable-background:new 0 0 324 56;" xml:space="preserve">
<style type="text/css">
	.st0{fill:#404137;}
	.st1{fill:#83CD29;}
</style>
<g>
	<path class="st0" d="M46.2,2.8v50.4h-9.6L11.5,22.6v30.6H0V2.8h9.6l25.1,30.6V2.8H46.2z"/>
	<path class="st1" d="M68.4,50.7c-4.2-2.3-7.5-5.4-9.9-9.3c-2.4-4-3.6-8.4-3.6-13.4c0-4.9,1.2-9.4,3.6-13.4s5.7-7.1,9.9-9.3
		c4.2-2.3,8.9-3.4,14.1-3.4c5.2,0,9.9,1.1,14.1,3.4c4.2,2.3,7.5,5.4,9.9,9.3c2.4,4,3.6,8.4,3.6,13.4c0,4.9-1.2,9.4-3.6,13.4
		c-2.4,4-5.7,7.1-9.9,9.3c-4.2,2.3-8.9,3.4-14.1,3.4C77.4,54.1,72.6,52.9,68.4,50.7z M90.6,42.1c2.4-1.4,4.3-3.3,5.7-5.7
		c1.4-2.4,2.1-5.2,2.1-8.4c0-3.1-0.7-5.9-2.1-8.4c-1.4-2.4-3.3-4.4-5.7-5.7c-2.4-1.4-5.1-2.1-8.1-2.1c-3,0-5.7,0.7-8.1,2.1
		c-2.4,1.4-4.3,3.3-5.7,5.7c-1.4,2.4-2.1,5.2-2.1,8.4c0,3.1,0.7,5.9,2.1,8.4c1.4,2.4,3.3,4.4,5.7,5.7c2.4,1.4,5.1,2.1,8.1,2.1
		C85.6,44.1,88.2,43.4,90.6,42.1z"/>
	<path class="st0" d="M118.9,2.8h22.9c5.5,0,10.3,1,14.5,3.1c4.2,2.1,7.5,5,9.8,8.8c2.3,3.8,3.5,8.2,3.5,13.2c0,5-1.2,9.5-3.5,13.2
		c-2.3,3.8-5.6,6.7-9.8,8.8c-4.2,2.1-9,3.1-14.5,3.1h-22.9V2.8z M141.3,43.6c5,0,9.1-1.4,12.1-4.2c3-2.8,4.5-6.6,4.5-11.4
		c0-4.8-1.5-8.6-4.5-11.4c-3-2.8-7-4.2-12.1-4.2h-10.7v31.2H141.3z"/>
	<path class="st0" d="M217.4,43.8v9.4h-39V2.8h38.1v9.4H190v10.9h23.4v9.1H190v11.7H217.4z"/>
	<path class="st1" d="M247,52.2c-2.9-1.3-5.2-3.1-7-5.4l6.5-7.8c2.7,3.7,5.9,5.5,9.4,5.5c4.8,0,7.1-2.8,7.1-8.4v-24h-17.7V2.8h29.3
		v32.7c0,6.2-1.5,10.8-4.6,13.9c-3.1,3.1-7.6,4.6-13.5,4.6C253,54.1,249.8,53.4,247,52.2z"/>
	<path class="st1" d="M291.1,52.4c-3.7-1.1-6.7-2.5-9-4.2l4-8.8c2.2,1.6,4.7,2.9,7.7,3.8c3,1,6,1.4,8.9,1.4c3.3,0,5.8-0.5,7.3-1.5
		c1.6-1,2.4-2.3,2.4-3.9c0-1.2-0.5-2.2-1.4-3c-0.9-0.8-2.1-1.4-3.6-1.9c-1.5-0.5-3.4-1-5.9-1.6c-3.8-0.9-7-1.8-9.4-2.7
		c-2.4-0.9-4.5-2.4-6.3-4.4c-1.8-2-2.6-4.7-2.6-8.1c0-2.9,0.8-5.6,2.4-8s4-4.3,7.2-5.7c3.2-1.4,7.1-2.1,11.7-2.1
		c3.2,0,6.4,0.4,9.4,1.2c3.1,0.8,5.8,1.9,8.1,3.3l-3.6,8.9c-4.7-2.6-9.3-4-14-4c-3.3,0-5.7,0.5-7.2,1.6c-1.6,1.1-2.3,2.4-2.3,4.2
		s0.9,3,2.7,3.9c1.8,0.8,4.5,1.7,8.2,2.5c3.8,0.9,7,1.8,9.4,2.7c2.4,0.9,4.5,2.4,6.3,4.3c1.8,2,2.6,4.6,2.6,8c0,2.9-0.8,5.5-2.4,7.9
		c-1.6,2.4-4,4.3-7.2,5.7c-3.2,1.4-7.1,2.1-11.7,2.1C298.6,54.1,294.8,53.5,291.1,52.4z"/>
</g>
</svg>
