<?xml version="1.0" encoding="utf-8"?>
<!-- Generator: Adobe Illustrator 24.0.1, SVG Export Plug-In . SVG Version: 6.00 Build 0)  -->
<svg version="1.1" id="Layer_1" xmlns="http://www.w3.org/2000/svg" xmlns:xlink="http://www.w3.org/1999/xlink" x="0px" y="0px"
	 viewBox="0 0 534.7 56" style="enable-background:new 0 0 534.7 56;" xml:space="preserve">
<style type="text/css">
	.st0{fill:#09D9FE;}
	.st1{fill:#764ABC;}
</style>
<g>
	<path class="st0" d="M32.1,53.2l-9.7-14h-0.6H11.7v14H0V2.8h21.8c4.5,0,8.3,0.7,11.6,2.2c3.3,1.5,5.8,3.6,7.6,6.3
		c1.8,2.7,2.7,6,2.7,9.7c0,3.7-0.9,7-2.7,9.7c-1.8,2.7-4.4,4.8-7.7,6.2l11.3,16.2H32.1z M29.2,14.6c-1.8-1.5-4.5-2.3-8-2.3h-9.5
		v17.6h9.5c3.5,0,6.2-0.8,8-2.3c1.8-1.5,2.7-3.7,2.7-6.5C31.9,18.3,31,16.1,29.2,14.6z"/>
	<path class="st0" d="M91.9,43.8v9.4h-39V2.8H91v9.4H64.5v10.9h23.4v9.1H64.5v11.7H91.9z"/>
	<path class="st0" d="M134.4,42.4H111l-4.5,10.8h-12l22.5-50.4h11.5l22.5,50.4h-12.2L134.4,42.4z M130.8,33.5l-8-19.3l-8,19.3H130.8
		z"/>
	<path class="st0" d="M165.9,50.7c-4.2-2.2-7.4-5.3-9.8-9.3s-3.6-8.4-3.6-13.4c0-5,1.2-9.5,3.6-13.4s5.6-7.1,9.8-9.3
		c4.2-2.2,8.8-3.3,14-3.3c4.4,0,8.3,0.8,11.8,2.3c3.5,1.5,6.5,3.7,8.9,6.6l-7.5,6.9c-3.4-3.9-7.6-5.9-12.7-5.9
		c-3.1,0-5.9,0.7-8.4,2.1c-2.4,1.4-4.4,3.3-5.7,5.7c-1.4,2.4-2.1,5.2-2.1,8.4c0,3.1,0.7,5.9,2.1,8.4c1.4,2.4,3.3,4.4,5.7,5.7
		c2.4,1.4,5.2,2.1,8.4,2.1c5,0,9.3-2,12.7-6l7.5,6.9c-2.4,2.9-5.4,5.2-8.9,6.7c-3.6,1.5-7.5,2.3-11.9,2.3
		C174.6,54.1,170,52.9,165.9,50.7z"/>
	<path class="st0" d="M218.4,12.3h-16.1V2.8h43.9v9.5H230v40.9h-11.7V12.3z"/>
	<path class="st1" d="M304.9,53.2l-9.7-14h-0.6h-10.2v14h-11.7V2.8h21.8c4.5,0,8.3,0.7,11.6,2.2c3.3,1.5,5.8,3.6,7.6,6.3
		c1.8,2.7,2.7,6,2.7,9.7c0,3.7-0.9,7-2.7,9.7c-1.8,2.7-4.4,4.8-7.7,6.2l11.3,16.2H304.9z M302,14.6c-1.8-1.5-4.5-2.3-8-2.3h-9.5
		v17.6h9.5c3.5,0,6.2-0.8,8-2.3c1.8-1.5,2.7-3.7,2.7-6.5C304.7,18.3,303.8,16.1,302,14.6z"/>
	<path class="st1" d="M364.7,43.8v9.4h-39V2.8h38.1v9.4h-26.5v10.9h23.4v9.1h-23.4v11.7H364.7z"/>
	<path class="st1" d="M374,2.8h22.9c5.5,0,10.3,1,14.5,3.1s7.5,5,9.8,8.8c2.3,3.8,3.5,8.2,3.5,13.2s-1.2,9.5-3.5,13.2
		c-2.3,3.8-5.6,6.7-9.8,8.8c-4.2,2.1-9,3.1-14.5,3.1H374V2.8z M396.4,43.6c5,0,9.1-1.4,12.1-4.2c3-2.8,4.5-6.6,4.5-11.4
		c0-4.8-1.5-8.6-4.5-11.4c-3-2.8-7-4.2-12.1-4.2h-10.7v31.2H396.4z"/>
	<path class="st1" d="M439.1,48.1c-4-4-6-9.7-6-17.1V2.8h11.7v27.8c0,9,3.7,13.5,11.2,13.5c3.6,0,6.4-1.1,8.4-3.3
		c1.9-2.2,2.9-5.6,2.9-10.3V2.8h11.5V31c0,7.4-2,13.1-6,17.1c-4,4-9.6,6-16.8,6S443.1,52.1,439.1,48.1z"/>
	<path class="st1" d="M521.3,53.2l-12.2-17.5l-12,17.5h-13.4l18.6-25.6L484.7,2.8h13.2l11.6,16.3l11.4-16.3h12.6l-17.6,24.3
		l18.8,26.1H521.3z"/>
</g>
</svg>
