<?xml version="1.0" encoding="utf-8"?>
<!-- Generator: Adobe Illustrator 24.0.1, SVG Export Plug-In . SVG Version: 6.00 Build 0)  -->
<svg version="1.1" id="Layer_1" xmlns="http://www.w3.org/2000/svg" xmlns:xlink="http://www.w3.org/1999/xlink" x="0px" y="0px"
	 viewBox="0 0 265.7 56" style="enable-background:new 0 0 265.7 56;" xml:space="preserve">
<style type="text/css">
	.st0{fill:#00BB7C;}
	.st1{fill:#32455C;}
</style>
<g>
	<path class="st0" d="M55.1,2.8L33.3,53.2H21.7L0,2.8h12.6l15.3,36l15.6-36H55.1z"/>
	<path class="st0" d="M65.9,48.1c-4-4-6-9.7-6-17.1V2.8h11.7v27.8c0,9,3.7,13.5,11.2,13.5c3.6,0,6.4-1.1,8.4-3.3
		c1.9-2.2,2.9-5.6,2.9-10.3V2.8h11.5V31c0,7.4-2,13.1-6,17.1c-4,4-9.6,6-16.8,6C75.5,54.1,69.9,52.1,65.9,48.1z"/>
	<path class="st0" d="M156.1,43.8v9.4h-39V2.8h38.1v9.4h-26.5v10.9h23.4v9.1h-23.4v11.7H156.1z"/>
	<path class="st1" d="M164.6,51.8c-1.3-1.3-2-3-2-5c0-2.1,0.7-3.7,2-5c1.3-1.3,3-1.9,5-1.9c2,0,3.6,0.6,5,1.9c1.3,1.3,2,2.9,2,5
		c0,2-0.7,3.7-2,5c-1.3,1.3-3,2-5,2C167.6,53.8,165.9,53.1,164.6,51.8z"/>
	<path class="st1" d="M188.7,52.2c-2.9-1.3-5.2-3.1-7-5.4l6.5-7.8c2.7,3.7,5.9,5.5,9.4,5.5c4.8,0,7.1-2.8,7.1-8.4v-24H187V2.8h29.3
		v32.7c0,6.2-1.5,10.8-4.6,13.9c-3.1,3.1-7.6,4.6-13.5,4.6C194.7,54.1,191.6,53.4,188.7,52.2z"/>
	<path class="st1" d="M232.8,52.4c-3.7-1.1-6.7-2.5-9-4.2l4-8.8c2.2,1.6,4.7,2.9,7.7,3.8c3,1,6,1.4,8.9,1.4c3.3,0,5.8-0.5,7.3-1.5
		c1.6-1,2.4-2.3,2.4-3.9c0-1.2-0.5-2.2-1.4-3c-0.9-0.8-2.1-1.4-3.6-1.9c-1.5-0.5-3.4-1-5.9-1.6c-3.8-0.9-7-1.8-9.4-2.7
		c-2.4-0.9-4.5-2.4-6.3-4.4c-1.8-2-2.6-4.7-2.6-8.1c0-2.9,0.8-5.6,2.4-8s4-4.3,7.2-5.7c3.2-1.4,7.1-2.1,11.7-2.1
		c3.2,0,6.4,0.4,9.4,1.2c3.1,0.8,5.8,1.9,8.1,3.3l-3.6,8.9c-4.7-2.6-9.3-4-14-4c-3.3,0-5.7,0.5-7.2,1.6c-1.6,1.1-2.3,2.4-2.3,4.2
		s0.9,3,2.7,3.9c1.8,0.8,4.5,1.7,8.2,2.5c3.8,0.9,7,1.8,9.4,2.7c2.4,0.9,4.5,2.4,6.3,4.3c1.8,2,2.6,4.6,2.6,8c0,2.9-0.8,5.5-2.4,7.9
		c-1.6,2.4-4,4.3-7.2,5.7c-3.2,1.4-7.1,2.1-11.7,2.1C240.4,54.1,236.5,53.5,232.8,52.4z"/>
</g>
</svg>
