<svg width="59" height="6" viewBox="0 0 59 6" fill="none" xmlns="http://www.w3.org/2000/svg">
<path d="M0.96582 5.15625C2.08371 4.6125 3.23266 4.06875 4.41266 3.5625C5.59266 3.05625 6.77266 2.56875 8.01477 2.1C9.25687 1.65 10.53 1.21875 11.8653 0.881252C12.5485 0.712501 13.2316 0.562502 13.9769 0.506252C14.3495 0.468752 14.7532 0.468752 15.1258 0.506252C15.5295 0.543752 15.9021 0.693752 16.1506 0.900002C16.399 1.10625 16.4921 1.35 16.5232 1.59375C16.5542 1.8375 16.5232 2.04375 16.5232 2.26875C16.5232 2.7 16.5232 3.13125 16.5853 3.5625C16.6474 3.975 16.7716 4.425 17.1132 4.725C17.2995 4.875 17.5479 4.9875 17.8274 5.025C18.1379 5.08125 18.4485 5.08125 18.79 5.0625C19.4732 5.025 20.1563 4.9125 20.8395 4.78125C21.5227 4.65 22.2058 4.5 22.8579 4.35C24.1932 4.03125 25.5285 3.69375 26.8637 3.35625C28.199 3.01875 29.5342 2.68125 30.9006 2.38125C31.5837 2.23125 32.2669 2.08125 32.95 1.95C33.6332 1.81875 34.3474 1.6875 35.0927 1.6125C35.4653 1.575 35.8379 1.55625 36.2416 1.575C36.4279 1.575 36.6453 1.6125 36.8316 1.65C37.0179 1.6875 37.2353 1.7625 37.3906 1.8375C38.0427 2.2125 38.0737 2.7375 38.2911 3.09375C38.3842 3.28125 38.5395 3.45 38.7879 3.58125C39.0053 3.7125 39.2848 3.825 39.5953 3.9C40.2163 4.06875 40.9306 4.125 41.6137 4.1625C43.0421 4.2375 44.4706 4.18125 45.899 4.10625C47.3274 4.03125 48.7558 3.91875 50.1842 3.7875C53.0411 3.54375 55.8669 3.225 58.7237 2.90625C55.8979 3.3 53.0721 3.675 50.2463 3.975C48.8179 4.125 47.3895 4.25625 45.9611 4.35C44.5327 4.44375 43.0732 4.51875 41.6137 4.4625C40.8685 4.425 40.1232 4.36875 39.409 4.2C39.0674 4.10625 38.6948 3.99375 38.4153 3.80625C38.1358 3.6375 37.9184 3.4125 37.7942 3.1875C37.67 2.9625 37.6079 2.75625 37.5148 2.55C37.4216 2.3625 37.2663 2.175 37.049 2.0625C36.9248 2.00625 36.8006 1.96875 36.6763 1.93125L36.2106 1.875C35.9 1.85625 35.5274 1.89375 35.1858 1.9125C34.5027 1.9875 33.8195 2.1 33.1363 2.23125C32.4532 2.3625 31.77 2.5125 31.1179 2.6625C29.7827 2.98125 28.4474 3.3 27.1121 3.65625C25.7769 3.99375 24.4416 4.33125 23.0753 4.63125C22.3921 4.78125 21.709 4.93125 21.0258 5.0625C20.3116 5.19375 19.5974 5.30625 18.8521 5.34375C18.4795 5.3625 18.0758 5.3625 17.6721 5.2875C17.2685 5.2125 16.8958 5.0625 16.6785 4.85625C16.2127 4.44375 16.1195 3.975 16.0574 3.525C15.9953 3.075 15.9953 2.64375 16.0263 2.19375C16.0263 1.96875 16.0574 1.74375 16.0263 1.55625C15.9953 1.35 15.9332 1.1625 15.7469 1.0125C15.4053 0.712502 14.66 0.656252 14.0079 0.712501C13.3248 0.768752 12.6416 0.900002 11.9895 1.05C10.6542 1.36875 9.38108 1.78125 8.13898 2.2125C5.68582 3.13125 3.29477 4.125 0.96582 5.15625Z" fill="#E8E8E8" stroke="#E8E8E8" stroke-width="0.2"/>
</svg>
